<svg width="73" height="52" fill="none" xmlns="http://www.w3.org/2000/svg"><path d="M21.88 33.307c2.108 22.13 36.815 25.006 38.558 0m-38.559-9.814c2.782-24.506 37.503-22.94 38.559 0M1 29.981c.556-2.363 1.473-3.135 3.963-3.66 4.42-.34 7.467 0 11.277.665 6.995.1 9.134-.065 11.278-1.663m0 0c11.34-14.256 16.209-21.07 13.412-24.12-3.627-1.67-7.054 6.995-13.412 24.12Zm0 0c-2.808 6.459-3.02 9.11-2.59 12.975 3.35.215 6.32-2.94 13.564-12.975-1.956 4.91-2.833 7.717-3.353 12.975 5.284-10.377 8.026-15.413 10.82-16.967.808.604-.064 5.505-1.829 14.97 4.217-6.94 6.207-10.028 6.859-9.315.708-.203.543 1.34 0 4.824-1.099 4.883-1.049 5.396-.762 5.656.868.413 1.538-.194 2.895-1.996 2.581-4.776 5.63-6.072 15.546-4.491 8.44 1.315 10.494.15 12.65-2.994" stroke="white" stroke-width="2"/></svg>